<svg width="125" height="67" viewBox="0 0 125 67" fill="none" xmlns="http://www.w3.org/2000/svg">
<path d="M71.96 39.2L70.92 43H67.92L72.66 28.2H76.14L80.9 43H77.8L76.76 39.2H71.96ZM75.68 35.28C75.22 33.74 74.84 32.04 74.38 30.44H74.3C73.92 32.06 73.5 33.74 73.04 35.28L72.6 36.9H76.12L75.68 35.28ZM93.835 39.2L92.795 43H89.795L94.535 28.2H98.015L102.775 43H99.675L98.635 39.2H93.835ZM97.555 35.28C97.095 33.74 96.715 32.04 96.255 30.44H96.175C95.795 32.06 95.375 33.74 94.915 35.28L94.475 36.9H97.995L97.555 35.28ZM117.99 43.28C115.99 43.28 114.03 42.5 112.59 41.12L114.29 39.08C115.35 40.06 116.75 40.72 118.05 40.72C119.59 40.72 120.41 40.06 120.41 39.02C120.41 37.9 119.53 37.6 118.19 37.02L116.21 36.18C114.71 35.54 113.21 34.36 113.21 32.2C113.21 29.78 115.35 27.92 118.33 27.92C120.09 27.92 121.77 28.6 122.97 29.82L121.47 31.68C120.53 30.9 119.55 30.46 118.33 30.46C117.03 30.46 116.19 31.04 116.19 32.02C116.19 33.02 117.25 33.48 118.51 33.96L120.45 34.78C122.29 35.52 123.43 36.64 123.43 38.8C123.43 41.22 121.41 43.28 117.99 43.28Z" fill="#A26201"/>
<g clip-path="url(#clip0_118_580)">
<rect y="31.6538" width="38.7821" height="38.7821" transform="rotate(-45 0 31.6538)" fill="#F29203"/>
<path d="M55 31.7308L27.5 59.2104L27.5 4.25112L55 31.7308Z" fill="#FDB549"/>
<ellipse cx="27.5003" cy="49.3589" rx="17.6282" ry="17.6282" fill="#FFE6C2"/>
</g>
<defs>
<clipPath id="clip0_118_580">
<rect width="55" height="66.9872" fill="white"/>
</clipPath>
</defs>
</svg>
