<svg width="30" height="30" viewBox="0 0 30 30" fill="none" xmlns="http://www.w3.org/2000/svg">
<path d="M26.9475 9.7815C26.982 9.5205 27 9.2595 27 9C27 5.4315 23.7855 2.568 20.2185 3.0525C19.179 1.203 17.199 0 15 0C12.801 0 10.821 1.203 9.7815 3.0525C6.207 2.568 3 5.4315 3 9C3 9.2595 3.018 9.5205 3.0525 9.7815C1.203 10.8225 0 12.8025 0 15C0 17.1975 1.203 19.1775 3.0525 20.2185C3.01789 20.4776 3.00036 20.7386 3 21C3 24.5685 6.207 27.4245 9.7815 26.9475C10.821 28.797 12.801 30 15 30C17.199 30 19.179 28.797 20.2185 26.9475C23.7855 27.4245 27 24.5685 27 21C27 20.7405 26.982 20.4795 26.9475 20.2185C28.797 19.1775 30 17.1975 30 15C30 12.8025 28.797 10.8225 26.9475 9.7815ZM13.4325 21.624L7.932 16.053L10.068 13.947L13.4535 17.376L19.944 10.935L22.056 13.065L13.4325 21.624Z" fill="#FFE6C2"/>
</svg>
