<svg width="224" height="67" viewBox="0 0 224 67" fill="none" xmlns="http://www.w3.org/2000/svg">
<path d="M87.28 39.42V48.72H84.64V30.3H87.28V37.24H89.96V39.42H87.28ZM77.8 31.58C80.58 31.58 82.64 34.1 82.64 38.14C82.64 42.2 80.58 44.74 77.8 44.74C75 44.74 72.96 42.2 72.96 38.14C72.96 34.1 75 31.58 77.8 31.58ZM77.8 42.34C79.16 42.34 80.1 40.88 80.1 38.14C80.1 35.4 79.16 33.96 77.8 33.96C76.42 33.96 75.5 35.4 75.5 38.14C75.5 40.88 76.42 42.34 77.8 42.34ZM107.058 48.7H104.558V30.28H107.058V48.7ZM103.278 30.58V47.88H100.818V39.12H99.0384V44.12H91.7784V32.18H99.0384V36.98H100.818V30.58H103.278ZM94.2384 34.26V42.06H96.5984V34.26H94.2384ZM124.977 48.76H122.337V30.28H124.977V48.76ZM113.337 42.3C116.137 42.3 118.477 42.12 121.057 41.7L121.337 43.84C118.297 44.38 115.657 44.48 112.297 44.48H110.637V36.9H116.617V33.96H110.617V31.86H119.317V38.98H113.337V42.3ZM142.475 39.5V48.68H139.835V30.28H142.475V37.32H145.055V39.5H142.475ZM137.575 32.06C137.575 37.72 136.235 42.46 129.375 45.98L127.975 43.94C130.995 42.44 132.775 40.72 133.815 38.7L128.475 39.22L128.135 36.98L134.575 36.6C134.755 35.82 134.895 35.04 134.955 34.16H129.115V32.06H137.575ZM163.134 46.66H146.454V44.52H153.474V40.32H148.334V31.7H150.974V38.22H161.374V40.32H156.114V44.52H163.134V46.66ZM183.883 37.22H186.243V39.38H183.883V42.62H181.243V30.28H183.883V33.08H186.243V35.24H183.883V37.22ZM178.943 40.48C177.003 39.84 175.663 38.66 174.883 37.06C174.083 38.9 172.643 40.32 170.563 41.02L169.163 38.96C172.243 37.94 173.503 35.48 173.503 33V31.38H176.183V33.28C176.183 35.46 177.423 37.6 180.303 38.46L178.943 40.48ZM179.343 42.2C179.343 44.18 181.143 46.1 185.103 46.64L184.123 48.68C181.143 48.22 179.143 47.06 178.023 45.38C176.903 47.06 174.903 48.22 171.923 48.68L170.943 46.64C174.883 46.1 176.723 44.18 176.723 42.2V41.74H179.343V42.2ZM188.622 38.3C192.462 37.88 194.402 36.1 194.722 34.5H189.282V32.4H194.762V30.34H197.402V32.4H202.922V34.5H197.462C197.782 36.06 199.762 37.88 203.562 38.3L202.622 40.38C199.482 40 197.302 38.76 196.102 37.08C194.902 38.76 192.762 40 189.542 40.38L188.622 38.3ZM197.402 43.46V48.76H194.762V43.46H187.802V41.32H204.442V43.46H197.402ZM220.6 39.5V48.68H217.96V30.28H220.6V37.32H223.18V39.5H220.6ZM215.7 32.18C215.7 37.72 213.62 42.44 207.48 45.54L206 43.52C210.3 41.3 212.56 38.42 213.04 34.32H207.02V32.18H215.7Z" fill="black"/>
<g clip-path="url(#clip0_127_386)">
<rect y="31.6538" width="38.7821" height="38.7821" transform="rotate(-45 0 31.6538)" fill="#F29203"/>
<path d="M55 31.7308L27.5 59.2104L27.5 4.25112L55 31.7308Z" fill="#FDB549"/>
<ellipse cx="27.5003" cy="49.359" rx="17.6282" ry="17.6282" fill="#FFE6C2"/>
</g>
<defs>
<clipPath id="clip0_127_386">
<rect width="55" height="66.9872" fill="white"/>
</clipPath>
</defs>
</svg>
