<svg width="30" height="30" viewBox="0 0 30 30" fill="none" xmlns="http://www.w3.org/2000/svg">
<path d="M15 2.5C11.5538 2.5 8.75 5.30375 8.75 8.75V12.5H7.5C6.83696 12.5 6.20107 12.7634 5.73223 13.2322C5.26339 13.7011 5 14.337 5 15V25C5 25.663 5.26339 26.2989 5.73223 26.7678C6.20107 27.2366 6.83696 27.5 7.5 27.5H22.5C23.163 27.5 23.7989 27.2366 24.2678 26.7678C24.7366 26.2989 25 25.663 25 25V15C25 14.337 24.7366 13.7011 24.2678 13.2322C23.7989 12.7634 23.163 12.5 22.5 12.5H21.25V8.75C21.25 5.30375 18.4462 2.5 15 2.5ZM11.25 8.75C11.25 6.6825 12.9325 5 15 5C17.0675 5 18.75 6.6825 18.75 8.75V12.5H11.25V8.75ZM16.25 22.1537V25H13.75V22.1537C13.313 21.9035 12.9621 21.5267 12.7435 21.0729C12.525 20.6192 12.4491 20.1099 12.5259 19.6122C12.6026 19.1145 12.8284 18.6517 13.1735 18.2849C13.5185 17.9181 13.9666 17.6645 14.4588 17.5575C14.8243 17.4767 15.2033 17.4789 15.5678 17.5641C15.9323 17.6493 16.2731 17.8152 16.565 18.0496C16.8569 18.284 17.0924 18.5809 17.2542 18.9185C17.416 19.2561 17.5 19.6257 17.5 20C17.4993 20.4372 17.3834 20.8664 17.1639 21.2446C16.9445 21.6227 16.6292 21.9363 16.25 22.1537Z" fill="#FFE6C2"/>
</svg>
