<svg width="25" height="26" viewBox="0 0 25 26" fill="none" xmlns="http://www.w3.org/2000/svg">
<path d="M10.4311 20.2211C5.56872 20.2211 1.63247 16.127 1.63247 11.0911C1.63247 6.04553 5.56872 1.96105 10.4311 1.96105C15.2936 1.96105 19.2298 6.04553 19.2298 11.0911C19.2298 16.127 15.2936 20.2211 10.4311 20.2211ZM23.7032 24.1901L17.6183 17.8762C19.1928 16.079 20.156 13.7051 20.156 11.0911C20.156 5.51695 15.8029 1 10.4311 1C5.05932 1 0.706299 5.51695 0.706299 11.0911C0.706299 16.6652 5.05932 21.1821 10.4311 21.1821C12.9503 21.1821 15.238 20.173 16.97 18.5489L23.0549 24.8631C23.2309 25.0457 23.5272 25.0457 23.7032 24.8631C23.8792 24.6708 23.8792 24.3727 23.7032 24.1901Z" fill="#FFE6C2" stroke="#FFE6C2" stroke-width="0.5"/>
</svg>
